<?xml version="1.0" encoding="iso-8859-1"?>
<!-- Uploaded to: SVG Repo, www.svgrepo.com, Generator: SVG Repo Mixer Tools -->
<svg fill="#000000" version="1.1" id="Layer_1" xmlns="http://www.w3.org/2000/svg" xmlns:xlink="http://www.w3.org/1999/xlink" 
	 viewBox="0 0 512 512" xml:space="preserve">
<g>
	<g>
		<g>
			<rect x="356.174" y="33.391" width="33.391" height="33.391"/>
			<rect x="389.565" y="66.783" width="33.391" height="89.044"/>
		</g>
	</g>
</g>
<g>
	<g>
		<path d="M322.783,133.565v-33.391V33.391h33.391V0H0v422.957h155.826v-33.391h-33.392V233.739h166.959V256h33.391v-55.652H89.042
			v189.217H33.391V33.391h55.65v100.174H322.783z M122.434,33.391h166.958v66.783H122.434V33.391z"/>
	</g>
</g>
<g>
	<g>
		<polygon points="222.609,478.609 222.609,422.957 189.217,422.957 189.217,512 278.261,512 278.261,478.609 		"/>
	</g>
</g>
<g>
	<g>
		<rect x="222.609" y="389.565" width="33.391" height="33.391"/>
	</g>
</g>
<g>
	<g>
		<rect x="256" y="356.174" width="33.391" height="33.391"/>
	</g>
</g>
<g>
	<g>
		<rect x="289.391" y="322.783" width="33.391" height="33.391"/>
	</g>
</g>
<g>
	<g>
		<rect x="322.783" y="289.391" width="33.391" height="33.391"/>
	</g>
</g>
<g>
	<g>
		<rect x="356.174" y="256" width="33.391" height="33.391"/>
	</g>
</g>
<g>
	<g>
		<rect x="389.565" y="222.609" width="33.391" height="33.391"/>
	</g>
</g>
<g>
	<g>
		<rect x="422.957" y="189.217" width="55.652" height="33.391"/>
	</g>
</g>
<g>
	<g>
		<rect x="278.261" y="445.217" width="33.391" height="33.391"/>
	</g>
</g>
<g>
	<g>
		<rect x="311.652" y="411.826" width="33.391" height="33.391"/>
	</g>
</g>
<g>
	<g>
		<rect x="345.043" y="378.435" width="33.391" height="33.391"/>
	</g>
</g>
<g>
	<g>
		<rect x="378.435" y="345.043" width="33.391" height="33.391"/>
	</g>
</g>
<g>
	<g>
		<rect x="411.826" y="311.652" width="33.391" height="33.391"/>
	</g>
</g>
<g>
	<g>
		<rect x="445.217" y="278.261" width="33.391" height="33.391"/>
	</g>
</g>
<g>
	<g>
		<rect x="478.609" y="222.609" width="33.391" height="55.652"/>
	</g>
</g>
</svg>